<svg xmlns="http://www.w3.org/2000/svg" width="129" height="56" viewBox="0 0 129 56">
    <g fill="none" fill-rule="evenodd">
        <g fill="#FF5A00" fill-rule="nonzero">
            <g>
                <g>
                    <g>
                        <g>
                            <path d="M89.3 7.765l-.008 8.17c-.008 1.845 1.466 3.374 3.313 3.39h.1c1.863-.016 3.503-1.554 3.503-3.414V7.773h3.346l-.008 14.274c-.149 4.176-3.578 7.484-7.769 7.492h-5.69v-3.333h5.69c2.443 0 4.423-1.984 4.431-4.424v-1.373c-.033.042-.149.199-.149.199-1.002 1.257-2.55 1.935-4.15 1.81-2.285 0-3.8-1.008-4.745-2.025-.861-.943-1.334-2.167-1.325-3.44V7.765H89.3zm-45.867-.132c4.058.058 7.313 3.357 7.305 7.41v.239c-.053 3.894-3.194 7.08-7.123 7.153-.132.009-.265 0-.397 0-4.092-.058-7.364-3.423-7.306-7.508.058-4.086 3.43-7.352 7.52-7.294zm16.548 0c4.058.058 7.313 3.357 7.305 7.41v.239c-.053 3.894-3.194 7.08-7.123 7.153-.132.009-.265 0-.397 0-4.092-.058-7.363-3.423-7.305-7.508.058-4.086 3.429-7.352 7.52-7.294zM83.445.074v22.08H80.1V20.41c-.977 1.373-2.609 2.142-4.299 2.01-3.246 0-6.741-2.53-6.741-7.327-.166-3.87 2.84-7.153 6.725-7.319.132-.008.265-.008.397-.008 1.3-.025 2.585.34 3.678 1.05V.075h3.586zM17.376 5.698V9.55h-7.321c-3.147.009-6.08 2.994-6.08 6.136l-.008 6.558H.05v-6.558c.008-5.515 4.48-9.981 10.005-9.99h7.321zM35.06.008v3.697c-2.849 0-4.282.942-4.282 3.076v.86h4.216v2.969h-4.265v11.544h-3.62V10.602h-2.26v-2.97h2.227v-.86c0-3.737 3.031-6.764 6.775-6.764h1.21zm41.487 10.817c-2.443 0-3.91 1.81-3.91 4.25s1.467 4.25 3.91 4.25c2.667 0 3.967-1.95 3.967-4.25 0-2.299-1.292-4.25-3.967-4.25zm-33.163.083c-2.286-.034-4.158 1.794-4.19 4.068-.034 2.283 1.797 4.151 4.074 4.185h.224c2.236-.05 4.017-1.894 3.967-4.127 0-2.258-1.814-4.093-4.075-4.126zm16.548 0c-2.286-.034-4.157 1.786-4.19 4.068-.034 2.283 1.797 4.151 4.074 4.185h.224c2.236-.05 4.009-1.894 3.967-4.127 0-2.258-1.814-4.093-4.075-4.126zM17.393 0v3.903H0V0h17.393z" transform="translate(-120 -498) translate(0 478) translate(120 20) translate(14.723 13.3)"/>
                            <path d="M89.3 7.765l-.008 8.17c-.008 1.845 1.466 3.374 3.313 3.39h.1c1.863-.016 3.503-1.554 3.503-3.414V7.773h3.346l-.008 14.274c-.149 4.176-3.578 7.484-7.769 7.492h-5.69v-3.333h5.69c2.443 0 4.423-1.984 4.431-4.424v-1.373c-.033.042-.149.199-.149.199-1.002 1.257-2.55 1.935-4.15 1.81-2.285 0-3.8-1.008-4.745-2.025-.861-.943-1.334-2.167-1.325-3.44V7.765H89.3zm-45.867-.132c4.058.058 7.313 3.357 7.305 7.41v.239c-.053 3.894-3.194 7.08-7.123 7.153-.132.009-.265 0-.397 0-4.092-.058-7.364-3.423-7.306-7.508.058-4.086 3.43-7.352 7.52-7.294zm16.548 0c4.058.058 7.313 3.357 7.305 7.41v.239c-.053 3.894-3.194 7.08-7.123 7.153-.132.009-.265 0-.397 0-4.092-.058-7.363-3.423-7.305-7.508.058-4.086 3.429-7.352 7.52-7.294zM83.445.074v22.08H80.1V20.41c-.977 1.373-2.609 2.142-4.299 2.01-3.246 0-6.741-2.53-6.741-7.327-.166-3.87 2.84-7.153 6.725-7.319.132-.008.265-.008.397-.008 1.3-.025 2.585.34 3.678 1.05V.075h3.586zM17.376 5.698V9.55h-7.321c-3.147.009-6.08 2.994-6.08 6.136l-.008 6.558H.05v-6.558c.008-5.515 4.48-9.981 10.005-9.99h7.321zM35.06.008v3.697c-2.849 0-4.282.942-4.282 3.076v.86h4.216v2.969h-4.265v11.544h-3.62V10.602h-2.26v-2.97h2.227v-.86c0-3.737 3.031-6.764 6.775-6.764h1.21zm41.487 10.817c-2.443 0-3.91 1.81-3.91 4.25s1.467 4.25 3.91 4.25c2.667 0 3.967-1.95 3.967-4.25 0-2.299-1.292-4.25-3.967-4.25zm-33.163.083c-2.286-.034-4.158 1.794-4.19 4.068-.034 2.283 1.797 4.151 4.074 4.185h.224c2.236-.05 4.017-1.894 3.967-4.127 0-2.258-1.814-4.093-4.075-4.126zm16.548 0c-2.286-.034-4.157 1.786-4.19 4.068-.034 2.283 1.797 4.151 4.074 4.185h.224c2.236-.05 4.009-1.894 3.967-4.127 0-2.258-1.814-4.093-4.075-4.126zM17.393 0v3.903H0V0h17.393z" transform="translate(-120 -498) translate(0 478) translate(120 20) translate(14.723 13.3)"/>
                        </g>
                    </g>
                </g>
            </g>
        </g>
    </g>
</svg>
